<?xml version="1.0" standalone="no"?>
<!DOCTYPE svg PUBLIC "-//W3C//DTD SVG 20010904//EN"
 "http://www.w3.org/TR/2001/REC-SVG-20010904/DTD/svg10.dtd">
<svg version="1.0" xmlns="http://www.w3.org/2000/svg"
 width="393.000000pt" height="188.000000pt" viewBox="0 0 393.000000 188.000000"
 preserveAspectRatio="xMidYMid meet">

<g transform="translate(0.000000,188.000000) scale(0.100000,-0.100000)"
fill="#000000" stroke="none">
<path d="M1790 1654 c-491 -43 -828 -157 -997 -335 -70 -75 -102 -197 -73
-283 29 -90 133 -190 270 -260 227 -117 514 -181 870 -193 884 -29 1538 335
1265 706 -122 167 -469 307 -865 350 -107 12 -401 21 -470 15z m565 -78 c317
-51 566 -150 692 -276 60 -59 85 -107 91 -171 18 -188 -270 -374 -701 -453
-603 -111 -1308 -1 -1572 245 -108 101 -132 191 -79 297 85 171 429 321 849
371 132 15 592 7 720 -13z"/>
<path d="M1690 1265 c-10 -12 -3 -25 39 -71 28 -30 51 -59 51 -64 0 -5 -25
-36 -57 -70 -52 -57 -55 -62 -40 -78 16 -15 21 -12 78 43 l61 60 16 -25 c10
-14 31 -41 49 -60 30 -32 33 -34 48 -19 16 16 14 21 -29 75 -25 33 -46 64 -46
69 0 6 21 36 46 69 40 50 44 60 32 72 -21 21 -39 10 -77 -46 -19 -28 -36 -50
-39 -50 -2 0 -22 20 -44 45 -51 57 -72 69 -88 50z"/>
<path d="M1503 1215 c-38 -16 -69 -63 -78 -116 -18 -108 119 -172 189 -88 60
71 55 178 -9 205 -42 17 -61 17 -102 -1z m105 -37 c20 -20 14 -92 -11 -129
-43 -64 -137 -45 -137 27 0 40 22 88 47 103 25 14 86 14 101 -1z"/>
<path d="M2053 1215 c-38 -16 -69 -63 -78 -116 -18 -108 119 -172 189 -88 60
71 55 178 -9 205 -42 17 -61 17 -102 -1z m105 -37 c20 -20 14 -92 -11 -129
-43 -64 -137 -45 -137 27 0 40 22 88 47 103 25 14 86 14 101 -1z"/>
<path d="M2251 1217 c-15 -15 -15 -243 0 -252 18 -12 24 5 29 90 l5 84 54 -65
c67 -80 108 -111 124 -95 14 14 22 144 12 207 -11 77 -29 48 -35 -56 l-5 -93
-50 54 c-27 31 -61 72 -75 92 -29 42 -43 50 -59 34z"/>
<path d="M3546 354 c-4 -10 -1 -14 6 -12 15 5 23 28 10 28 -5 0 -13 -7 -16
-16z"/>
<path d="M280 320 c0 -5 11 -10 25 -10 l25 0 -25 -50 c-14 -27 -25 -52 -25
-55 0 -3 18 -5 40 -5 22 0 40 5 40 10 0 6 -11 10 -25 10 l-25 0 25 50 c14 27
25 52 25 55 0 3 -18 5 -40 5 -22 0 -40 -4 -40 -10z"/>
<path d="M420 329 c0 -3 -11 -33 -24 -67 -19 -49 -22 -62 -10 -62 8 0 14 7 14
15 0 21 40 19 56 -2 23 -32 25 -6 4 48 -19 47 -40 83 -40 68z m20 -70 c0 -5
-7 -9 -15 -9 -9 0 -12 6 -9 15 6 15 24 11 24 -6z"/>
<path d="M490 265 c0 -51 3 -65 15 -65 9 0 15 9 15 25 0 14 4 25 8 25 5 0 15
-11 22 -25 7 -14 19 -25 27 -25 11 0 10 5 -2 24 -13 19 -13 28 -4 49 16 35 -2
57 -47 57 l-34 0 0 -65z m60 25 c0 -11 -7 -20 -15 -20 -8 0 -15 9 -15 20 0 11
7 20 15 20 8 0 15 -9 15 -20z"/>
<path d="M600 320 c0 -5 11 -10 25 -10 l25 0 -25 -50 c-14 -27 -25 -52 -25
-55 0 -3 18 -5 40 -5 22 0 40 5 40 10 0 6 -11 10 -25 10 l-25 0 25 50 c14 27
25 52 25 55 0 3 -18 5 -40 5 -22 0 -40 -4 -40 -10z"/>
<path d="M740 329 c0 -3 -11 -33 -24 -67 -19 -49 -22 -62 -10 -62 8 0 14 7 14
15 0 9 9 15 25 15 20 0 27 -6 32 -30 3 -19 12 -30 22 -30 13 0 13 2 2 9 -7 5
-11 13 -8 18 7 11 -28 112 -44 128 -5 5 -9 7 -9 4z m20 -70 c0 -5 -7 -9 -15
-9 -9 0 -12 6 -9 15 6 15 24 11 24 -6z"/>
<path d="M810 265 l0 -65 30 0 c37 0 70 31 70 65 0 34 -33 65 -70 65 l-30 0 0
-65z m70 26 c13 -25 -3 -71 -25 -71 -11 0 -15 11 -15 45 0 49 20 62 40 26z"/>
<path d="M930 320 c0 -5 11 -10 25 -10 l25 0 -25 -50 c-14 -27 -25 -52 -25
-55 0 -3 18 -5 40 -5 22 0 40 5 40 10 0 6 -11 10 -25 10 l-25 0 25 50 c14 27
25 52 25 55 0 3 -18 5 -40 5 -22 0 -40 -4 -40 -10z"/>
<path d="M1070 329 c0 -3 -11 -33 -24 -67 -19 -49 -22 -62 -10 -62 8 0 14 7
14 15 0 21 40 19 56 -2 23 -32 25 -6 4 48 -19 47 -40 83 -40 68z m20 -70 c0
-5 -7 -9 -15 -9 -9 0 -12 6 -9 15 6 15 24 11 24 -6z"/>
<path d="M1140 265 c0 -72 17 -90 22 -22 l3 42 30 -42 c17 -24 33 -43 38 -43
4 0 7 29 7 65 0 72 -17 90 -22 23 l-3 -43 -30 42 c-16 24 -33 43 -37 43 -5 0
-8 -29 -8 -65z"/>
<path d="M1260 265 c0 -51 3 -65 15 -65 12 0 15 14 15 65 0 51 -3 65 -15 65
-12 0 -15 -14 -15 -65z"/>
<path d="M1310 265 l0 -65 40 0 c22 0 40 5 40 10 0 6 -11 10 -25 10 -18 0 -25
5 -25 20 0 13 7 20 20 20 11 0 20 5 20 10 0 6 -9 10 -20 10 -11 0 -20 7 -20
15 0 9 9 15 25 15 14 0 25 5 25 10 0 6 -18 10 -40 10 l-40 0 0 -65z"/>
<path d="M1500 265 c0 -51 3 -65 15 -65 12 0 15 14 15 65 0 51 -3 65 -15 65
-12 0 -15 -14 -15 -65z"/>
<path d="M1623 266 c22 -69 31 -74 42 -26 4 17 10 30 15 30 5 0 11 -13 15 -30
11 -48 21 -43 40 20 10 33 22 60 26 60 14 0 39 -57 39 -90 0 -20 5 -30 15 -30
10 0 15 10 15 31 0 18 9 47 21 65 16 26 17 34 6 34 -7 0 -19 -12 -26 -27 -12
-27 -13 -27 -27 -8 -8 10 -14 22 -14 27 0 4 -13 8 -30 8 -25 0 -30 -4 -36 -35
-3 -19 -10 -35 -15 -35 -4 0 -11 16 -15 35 -8 43 -20 45 -29 5 -10 -43 -23
-46 -31 -5 -3 19 -12 35 -19 35 -10 0 -8 -16 8 -64z"/>
<path d="M1897 312 c-22 -24 -22 -76 -1 -97 19 -19 65 -16 72 4 3 9 -2 11 -17
6 -27 -8 -51 10 -51 40 0 29 24 48 50 40 23 -7 28 10 4 19 -26 10 -40 7 -57
-12z"/>
<path d="M1990 265 l0 -65 40 0 c22 0 40 5 40 10 0 6 -11 10 -25 10 -18 0 -25
5 -25 20 0 13 7 20 20 20 11 0 20 5 20 10 0 6 -9 10 -20 10 -11 0 -20 7 -20
15 0 9 9 15 25 15 14 0 25 5 25 10 0 6 -18 10 -40 10 l-40 0 0 -65z"/>
<path d="M2090 265 c0 -72 17 -90 22 -22 l3 42 30 -42 c17 -24 33 -43 38 -43
4 0 7 29 7 65 0 72 -17 90 -22 23 l-3 -43 -30 42 c-16 24 -33 43 -37 43 -5 0
-8 -29 -8 -65z"/>
<path d="M2250 329 c0 -3 -11 -33 -24 -67 -19 -49 -22 -62 -10 -62 8 0 14 7
14 15 0 21 40 19 56 -2 23 -32 25 -6 4 48 -19 47 -40 83 -40 68z m20 -70 c0
-5 -7 -9 -15 -9 -9 0 -12 6 -9 15 6 15 24 11 24 -6z"/>
<path d="M2390 265 c0 -72 17 -90 22 -22 l3 42 30 -42 c17 -24 33 -43 38 -43
4 0 7 29 7 65 0 72 -17 90 -22 23 l-3 -43 -30 42 c-16 24 -33 43 -37 43 -5 0
-8 -29 -8 -65z"/>
<path d="M2510 265 c0 -51 3 -65 15 -65 12 0 15 14 15 65 0 51 -3 65 -15 65
-12 0 -15 -14 -15 -65z"/>
<path d="M2560 265 l0 -65 40 0 c22 0 40 5 40 10 0 6 -11 10 -25 10 -18 0 -25
5 -25 20 0 13 7 20 20 20 11 0 20 5 20 10 0 6 -9 10 -20 10 -11 0 -20 7 -20
15 0 9 9 15 25 15 14 0 25 5 25 10 0 6 -18 10 -40 10 l-40 0 0 -65z"/>
<path d="M2660 265 c0 -51 3 -65 15 -65 9 0 15 9 15 25 0 14 4 25 8 25 5 0 15
-11 22 -25 7 -14 19 -25 27 -25 11 0 10 5 -2 24 -13 19 -13 28 -4 49 16 35 -2
57 -47 57 l-34 0 0 -65z m60 25 c0 -11 -7 -20 -15 -20 -8 0 -15 9 -15 20 0 11
7 20 15 20 8 0 15 -9 15 -20z"/>
<path d="M2770 281 c0 -53 17 -81 50 -81 33 0 50 28 50 81 0 66 -18 63 -22 -3
-3 -46 -6 -53 -25 -56 -22 -3 -23 0 -23 52 0 43 -3 56 -15 56 -11 0 -15 -12
-15 -49z"/>
<path d="M2907 312 c-22 -24 -22 -76 -1 -97 19 -19 65 -16 72 4 3 9 -2 11 -17
6 -27 -8 -51 10 -51 40 0 29 24 48 50 40 23 -7 28 10 4 19 -26 10 -40 7 -57
-12z"/>
<path d="M3000 265 c0 -51 3 -65 15 -65 10 0 15 10 15 30 0 25 4 30 25 30 21
0 25 -5 25 -30 0 -16 5 -30 10 -30 6 0 10 28 10 65 0 37 -4 65 -10 65 -5 0
-10 -11 -10 -25 0 -20 -5 -25 -25 -25 -20 0 -25 5 -25 25 0 16 -6 25 -15 25
-12 0 -15 -14 -15 -65z"/>
<path d="M3137 312 c-21 -23 -22 -76 -1 -96 22 -23 60 -20 78 6 45 64 -27 146
-77 90z m64 -23 c15 -28 -3 -69 -30 -69 -23 0 -35 31 -27 66 8 30 41 32 57 3z"/>
<path d="M3266 309 c-22 -95 -24 -110 -13 -106 7 2 15 17 18 33 l6 29 16 -35
15 -35 15 35 15 35 7 -32 c7 -29 25 -47 25 -25 0 28 -24 122 -31 122 -5 0 -9
-6 -9 -14 0 -8 -5 -27 -11 -43 l-11 -28 -14 39 c-18 50 -22 54 -28 25z"/>
<path d="M3397 312 c-21 -23 -22 -76 -1 -96 22 -23 60 -20 78 6 45 64 -27 146
-77 90z m64 -23 c15 -28 -3 -69 -30 -69 -23 0 -35 31 -27 66 8 30 41 32 57 3z"/>
<path d="M3523 323 c-23 -9 -15 -49 12 -61 14 -6 25 -19 25 -28 0 -12 -7 -15
-25 -12 -14 3 -25 2 -25 -3 0 -14 21 -21 46 -15 33 9 32 48 -1 70 -32 21 -32
36 1 36 14 0 23 4 19 10 -6 10 -31 12 -52 3z"/>
<path d="M3617 312 c-22 -24 -22 -76 -1 -97 19 -19 65 -16 72 4 3 9 -2 11 -17
6 -27 -8 -51 10 -51 40 0 29 24 48 50 40 23 -7 28 10 4 19 -26 10 -40 7 -57
-12z"/>
<path d="M3710 265 c0 -51 3 -65 15 -65 12 0 15 14 15 65 0 51 -3 65 -15 65
-12 0 -15 -14 -15 -65z"/>
</g>
</svg>
