<?xml version="1.0" encoding="utf-8"?>
<!-- Svg Vector Icons : http://www.onlinewebfonts.com/icon -->
<!DOCTYPE svg PUBLIC "-//W3C//DTD SVG 1.1//EN" "http://www.w3.org/Graphics/SVG/1.1/DTD/svg11.dtd">
<svg version="1.1" xmlns="http://www.w3.org/2000/svg" xmlns:xlink="http://www.w3.org/1999/xlink" x="0px" y="0px" viewBox="0 0 1000 1000" enable-background="new 0 0 1000 1000" xml:space="preserve">
<metadata> Svg Vector Icons : http://www.onlinewebfonts.com/icon </metadata>
<g><path d="M298.2,125.2l403.5,374.7L298.2,874.6V125.2 M298.2,10c-15.6,0-31.2,3.1-46,9.7C210.2,37.9,183,79.4,183,125.2v749.4c0,45.9,27.2,87.4,69.2,105.7c14.8,6.4,30.5,9.7,46,9.7c28.6,0,56.7-10.6,78.4-30.7l403.5-374.7c23.5-21.9,36.8-52.6,36.8-84.6c0-32.1-13.3-62.7-36.8-84.5L376.7,40.7C355,20.6,326.8,10,298.2,10L298.2,10z"/></g>
</svg>